<?xml version="1.0" encoding="UTF-8"?>
<svg id="Layer_2" data-name="Layer 2" xmlns="http://www.w3.org/2000/svg" viewBox="0 0 252.18 251.81">
  <defs>
    <style>
      .cls-1 {
        fill: #651e0d;
      }
    </style>
  </defs>
  <g id="Layer_1-2" data-name="Layer 1">
    <g>
      <g>
        <path class="cls-1" d="M231.35,225.4c-3.41,0-6.17,2.77-6.17,6.17s2.76,6.17,6.17,6.17,6.16-2.76,6.16-6.17-2.76-6.17-6.16-6.17ZM231.35,236.74c-2.85,0-5.17-2.32-5.17-5.17s2.32-5.17,5.17-5.17,5.16,2.32,5.16,5.17-2.31,5.17-5.16,5.17Z"/>
        <path class="cls-1" d="M122.59.06C21.81,3.22-35.37,117.81,24.17,199.94c52.28,72.11,161.48,68.36,208.7-7.07C286.17,107.76,222.58-3.07,122.59.06ZM192.02,183.61c-19.09.12-37.71-9.44-48.62-25.01l.13,24.5h-12.76l-64.09-98.52v98.52h-10.19l-.38-.39v-112.96l.38-.39h12.64c21.49,32.03,41.73,64.91,63.2,96.96l.63.27c.16-.37-.26-.77-.26-.9v-96.33h10.83l-.13,24.76c7.56-12.47,21.39-21.13,35.51-24.32,4.3-.97,8.69-1.69,13.11-1.47v10.19c-1.43.8-3.61.25-5.3.37-22.73,1.71-41.51,22.3-42.68,44.75-1.42,27.27,20.98,49.68,47.98,49.66v10.31ZM202.2,138.47c-12.23,10.44-30.77-1.81-25.84-17.58,1.59-5.08,7.42-10.29,12.76-10.97,16.36-2.08,25.7,17.78,13.08,28.55Z"/>
      </g>
      <path class="cls-1" d="M232.81,232.22c.25-.13.45-.29.6-.48.24-.31.36-.71.36-1.18,0-.27-.04-.52-.12-.73-.09-.22-.22-.41-.4-.58-.18-.16-.42-.29-.71-.38-.3-.1-.66-.14-1.08-.14h-2.26v5.99h1.26v-2.21h.91c.08,0,.17,0,.26-.01h.01l1.04,2.22h1.39l-1.26-2.5ZM230.46,231.5v-1.75h.91c.29,0,.51.03.68.1.16.06.27.16.34.28.07.13.11.28.11.47s-.03.35-.1.48c-.06.14-.17.24-.33.31-.16.07-.37.11-.65.11h-.96Z"/>
    </g>
  </g>
</svg>