<?xml version="1.0" encoding="UTF-8"?>
<svg xmlns="http://www.w3.org/2000/svg" xmlns:xlink="http://www.w3.org/1999/xlink" viewBox="0 0 381.03 397.78">
  <defs>
    <style>
      .cls-1, .cls-2 {
        fill: #1a1516;
      }

      .cls-3 {
        letter-spacing: .08em;
      }

      .cls-4 {
        fill: #f5b713;
      }

      .cls-2, .cls-5 {
        stroke-width: 2px;
      }

      .cls-2, .cls-5, .cls-6 {
        stroke: #f5b713;
        stroke-linecap: round;
        stroke-linejoin: round;
      }

      .cls-5, .cls-7, .cls-6 {
        fill: none;
      }

      .cls-8 {
        fill: #faf0e8;
        font-family: FONTSPRINGDEMO-GelicaBkBlack, 'FONTSPRING DEMO - Gelica Bk';
        font-size: 75.93px;
        font-weight: 800;
      }

      .cls-9 {
        letter-spacing: .07em;
      }

      .cls-10 {
        letter-spacing: .05em;
      }

      .cls-11 {
        letter-spacing: .07em;
      }

      .cls-12 {
        clip-path: url(#clippath);
      }
    </style>
    <clipPath id="clippath">
      <path class="cls-7" d="M233.6,109.93h0s-13.4,7.41-13.4,7.41l-25.04,16.38-1.95-45.6h-87.87c-43.76,0-79.23,35.47-79.23,79.23v79.91c0,43.76,35.47,79.23,79.23,79.23h170.34c43.76,0,79.23-35.47,79.23-79.23v-70.21c0-62.28-68.54-100.21-121.31-67.13Z"/>
    </clipPath>
  </defs>
  <g id="OBJECTS">
    <g class="cls-12">
      <g>
        <line class="cls-6" x1="190.55" y1="207.59" x2="198.04" y2="17.35"/>
        <line class="cls-6" x1="190.55" y1="207.59" x2="231.5" y2="21.65"/>
        <line class="cls-6" x1="190.55" y1="207.59" x2="263.68" y2="31.8"/>
        <line class="cls-6" x1="190.55" y1="207.59" x2="293.56" y2="47.47"/>
        <line class="cls-6" x1="190.55" y1="207.59" x2="320.2" y2="68.17"/>
        <line class="cls-6" x1="190.55" y1="207.59" x2="342.78" y2="93.24"/>
        <line class="cls-6" x1="190.55" y1="207.59" x2="360.57" y2="121.91"/>
        <line class="cls-6" x1="190.55" y1="207.59" x2="373.03" y2="153.26"/>
        <line class="cls-6" x1="190.55" y1="207.59" x2="379.75" y2="186.32"/>
        <line class="cls-6" x1="190.55" y1="207.59" x2="380.53" y2="220.05"/>
        <line class="cls-6" x1="190.55" y1="207.59" x2="375.35" y2="253.39"/>
        <line class="cls-6" x1="190.55" y1="207.59" x2="364.36" y2="285.29"/>
        <line class="cls-6" x1="190.55" y1="207.59" x2="347.92" y2="314.75"/>
        <line class="cls-6" x1="190.55" y1="207.59" x2="326.53" y2="340.85"/>
        <line class="cls-6" x1="190.55" y1="207.59" x2="300.87" y2="362.76"/>
        <line class="cls-6" x1="190.55" y1="207.59" x2="271.75" y2="379.79"/>
        <line class="cls-6" x1="190.55" y1="207.59" x2="240.08" y2="391.42"/>
        <line class="cls-6" x1="190.55" y1="207.59" x2="206.85" y2="397.28"/>
        <line class="cls-6" x1="190.55" y1="207.59" x2="173.11" y2="397.18"/>
        <line class="cls-6" x1="190.55" y1="207.59" x2="139.92" y2="391.12"/>
        <line class="cls-6" x1="190.55" y1="207.59" x2="108.32" y2="379.3"/>
        <line class="cls-6" x1="190.55" y1="207.59" x2="79.3" y2="362.09"/>
        <line class="cls-6" x1="190.55" y1="207.59" x2="53.78" y2="340.03"/>
        <line class="cls-6" x1="190.55" y1="207.59" x2="32.55" y2="313.81"/>
        <line class="cls-6" x1="190.55" y1="207.59" x2="16.28" y2="284.25"/>
        <line class="cls-6" x1="190.55" y1="207.59" x2="5.48" y2="252.28"/>
        <line class="cls-6" x1="190.55" y1="207.59" x2=".5" y2="218.92"/>
        <line class="cls-6" x1="190.55" y1="207.59" x2="1.48" y2="185.19"/>
        <line class="cls-6" x1="190.55" y1="207.59" x2="8.41" y2="152.17"/>
        <line class="cls-6" x1="190.55" y1="207.59" x2="21.05" y2="120.89"/>
        <line class="cls-6" x1="190.55" y1="207.59" x2="39.02" y2="92.33"/>
        <line class="cls-6" x1="190.55" y1="207.59" x2="61.74" y2="67.39"/>
        <line class="cls-6" x1="190.55" y1="207.59" x2="88.51" y2="46.86"/>
        <line class="cls-6" x1="190.55" y1="207.59" x2="118.48" y2="31.37"/>
        <line class="cls-6" x1="190.55" y1="207.59" x2="150.72" y2="21.41"/>
      </g>
    </g>
    <g>
      <path class="cls-2" d="M230.2,209.09v6.84c-.11,3.63-3.28,6.43-6.91,6.43h-1.5c-1.9,0-2.51,2.57-.81,3.41,14.67,7.25,24.33,19.58,24.33,33.59,0,13.26-8.65,25.03-22.01,32.41v.49s0,4,0,4c0,3.79-3.07,6.86-6.86,6.86h-51.84c-3.79,0-6.86-3.07-6.86-6.86v-4.49c-13.36-7.38-22.01-19.15-22.01-32.41,0-14.01,9.66-26.34,24.33-33.59,1.7-.84,1.09-3.41-.81-3.41h-1.78c-3.73,0-6.75-3.08-6.63-6.84v-6.43"/>
      <g>
        <g>
          <path class="cls-2" d="M213.27,129.57h-3.87c-.75-5.49-3.8-10.23-8.14-13.22l.5-.5c5.26-5.26,5.26-13.8,0-19.07l-1.76-1.76,1.76-1.76c5.26-5.26,5.26-13.8,0-19.07l-1.76-1.76,1.76-1.76c5.26-5.26,5.26-13.8,0-19.07h0c-1.71-1.71-.5-4.63,1.92-4.63h.48c7.17,0,12.99-5.82,12.99-12.99h-53.27c0,7.17,5.82,12.99,12.99,12.99h.48c2.42,0,3.63,2.92,1.92,4.63h0c-5.26,5.26-5.26,13.8,0,19.07l1.76,1.76-1.76,1.76c-5.26,5.26-5.26,13.8,0,19.07l1.76,1.76-1.76,1.76c-5.26,5.26-5.26,13.8,0,19.07l.5.5c-4.35,2.99-7.4,7.74-8.14,13.22h-3.87c-3.64,0-6.81,2.8-6.92,6.44-.11,3.76,2.9,6.85,6.64,6.85h.97v8.55h44.13v-8.55h.97c3.74,0,6.76-3.09,6.64-6.85-.11-3.64-3.28-6.44-6.92-6.44Z"/>
          <path class="cls-2" d="M236.5,26.99h-91.97c0,3.87,3.14,7.01,7.01,7.01h77.94c3.87,0,7.01-3.14,7.01-7.01h0Z"/>
          <path class="cls-2" d="M176.82,1v2.1c0,5.73,3.52,10.63,8.51,12.68v11.22h10.38v-11.22c4.99-2.05,8.51-6.95,8.51-12.68V1h-27.4Z"/>
        </g>
        <g>
          <path class="cls-4" d="M147.91,244.11c-3.52,5.15-5.47,11.45-4.91,17.66.55,6.21,3.75,12.25,8.89,15.77,1.89,1.3,4.46,2.23,6.4,1.01,1.23-.77,1.87-2.27,1.92-3.72s-.41-2.88-.97-4.22c-2.07-4.95-5.65-9.42-6.2-14.76-.39-3.8.91-7.74,3.48-10.56,2.06-2.26,9.04-6.52,6.42-10.37-2.6-3.82-7.88,1.47-9.91,3.33-1.92,1.75-3.65,3.71-5.12,5.86Z"/>
          <path class="cls-4" d="M180.98,65.04c.43,1.13,1.08,2.26,2.16,2.79,1.08.53,2.65.19,3.07-.94.36-.98-.23-2.03-.79-2.9-1.12-1.73-2.31-3.64-2.07-5.69.13-1.13,1.53-3.54.49-4.51-1.2-1.12-2.16.89-2.52,1.71-1.31,2.98-1.48,6.48-.32,9.55Z"/>
          <path class="cls-4" d="M180.98,110.03c.43,1.13,1.08,2.26,2.16,2.79,1.08.53,2.65.19,3.07-.94.36-.98-.23-2.03-.79-2.9-1.12-1.73-2.31-3.64-2.07-5.69.13-1.13,1.53-3.54.49-4.51-1.2-1.12-2.16.89-2.52,1.71-1.31,2.98-1.48,6.48-.32,9.55Z"/>
        </g>
      </g>
    </g>
    <g>
      <g>
        <polyline class="cls-2" points="207.46 123.45 218.96 116.44 221.39 120.42 209.41 127.72"/>
        <rect class="cls-2" x="219.93" y="113.32" width="3.35" height="8.46" transform="translate(-28.8 132.6) rotate(-31.38)"/>
      </g>
      <g>
        <polygon class="cls-2" points="185.11 89.76 151.56 91.76 151.56 83.3 185.11 85.3 185.11 89.76"/>
        <path class="cls-2" d="M188.36,91.76h0c-1.77,0-3.2-1.43-3.2-3.2v-2.06c0-1.77,1.43-3.2,3.2-3.2h0v8.46Z"/>
        <path class="cls-2" d="M149.49,94.36h0c-1.14,0-2.07-.93-2.07-2.07v-9.51c0-1.14.93-2.07,2.07-2.07h0c1.14,0,2.07.93,2.07,2.07v9.51c0,1.14-.93,2.07-2.07,2.07Z"/>
      </g>
      <path class="cls-5" d="M233.6,109.93h0c52.77-33.08,121.31,4.85,121.31,67.13v70.21c0,43.76-35.47,79.23-79.23,79.23H105.35c-43.76,0-79.23-35.47-79.23-79.23v-79.91c0-43.76,35.47-79.23,79.23-79.23h42.07"/>
    </g>
    <line class="cls-5" x1="233.6" y1="109.93" x2="223.13" y2="116.21"/>
    <rect class="cls-1" x="54.95" y="151.39" width="271.14" height="74.17"/>
    <g>
      <line class="cls-5" x1="54.95" y1="151.39" x2="326.09" y2="151.39"/>
      <line class="cls-5" x1="54.95" y1="225.56" x2="326.09" y2="225.56"/>
    </g>
  </g>
  <g id="TEXTS">
    <text class="cls-8" transform="translate(76.21 214.95) scale(.92 1)"><tspan class="cls-10" x="0" y="0">R</tspan><tspan class="cls-9" x="59.22" y="0">O</tspan><tspan class="cls-11" x="119.74" y="0">M</tspan><tspan class="cls-3" x="192.4" y="0">E</tspan></text>
  </g>
</svg>